<svg xmlns="http://www.w3.org/2000/svg" xmlns:xlink="http://www.w3.org/1999/xlink" width="46.495" height="46.495" viewBox="0 0 46.495 46.495">
  <defs>
    <clipPath id="clip-path">
      <path id="Path_4061" data-name="Path 4061" d="M0,19.08H46.495V-27.415H0Z" transform="translate(0 27.415)" fill="#ffd698"/>
    </clipPath>
  </defs>
  <g id="Group_1526" data-name="Group 1526" clip-path="url(#clip-path)">
    <g id="Group_1525" data-name="Group 1525" transform="translate(0 -0.001)">
      <path id="Path_4060" data-name="Path 4060" d="M19.08,9.54A23.248,23.248,0,0,0-4.169-13.708,23.247,23.247,0,0,0-27.415,9.54,23.248,23.248,0,0,0-4.169,32.788,23.249,23.249,0,0,0,19.08,9.54M7.31,8.668a1.809,1.809,0,0,1-.617,1.372L-9.19,19.877a1.273,1.273,0,0,1-.641.2,1.164,1.164,0,0,1-1.13-1.189h-.007V-1.553h.007a1.162,1.162,0,0,1,1.13-1.189,1.172,1.172,0,0,1,.624.19l15.9,9.847A1.826,1.826,0,0,1,7.31,8.668" transform="translate(27.415 13.708)" fill="#ffd698"/>
    </g>
  </g>
</svg>
