<svg xmlns="http://www.w3.org/2000/svg" width="89.45" height="86" viewBox="0 0 89.45 86">
  <g id="Component_17_1" data-name="Component 17 – 1" transform="translate(0.45)">
    <circle id="Ellipse_164" data-name="Ellipse 164" cx="43" cy="43" r="43" transform="translate(3)" fill="#ffdfdc"/>
    <g id="Group_168" data-name="Group 168" transform="translate(0 16)">
      <path id="Path_170" data-name="Path 170" d="M682.383,545.531H640.948a.932.932,0,0,0-.932.932v53.622a.932.932,0,0,0,.932.932h41.435a.932.932,0,0,0,.932-.932V546.463A.932.932,0,0,0,682.383,545.531Zm-.932,53.622H641.88V547.395h39.572Z" transform="translate(-640.016 -537.709)" fill="#004251" stroke="#004251" stroke-width="0.9"/>
      <path id="Path_172" data-name="Path 172" d="M826.942,417.364H785.507a.932.932,0,0,0-.932.932v4.185h1.863v-3.253H826.01v51.759h-5.08v1.864h6.012a.932.932,0,0,0,.932-.932V418.3A.932.932,0,0,0,826.942,417.364Z" transform="translate(-775.753 -417.364)" fill="#004251" stroke="#004251" stroke-width="0.9"/>
      <path id="Path_173" data-name="Path 173" d="M818.991,757.386a.932.932,0,0,0,.932-.932v-6a.932.932,0,1,0-1.863,0v6A.932.932,0,0,0,818.991,757.386Z" transform="translate(-807.193 -729.252)" fill="#004251" stroke="#004251" stroke-width="0.9"/>
      <path id="Path_174" data-name="Path 174" d="M894.08,708.469a.932.932,0,0,0,.932-.932v-9.179a.932.932,0,0,0-1.864,0v9.179A.932.932,0,0,0,894.08,708.469Z" transform="translate(-877.7 -680.334)" fill="#004251" stroke="#004251" stroke-width="0.9"/>
      <path id="Path_175" data-name="Path 175" d="M976.909,653.1a.932.932,0,0,0,.932-.932V639.394a.932.932,0,0,0-1.864,0v12.777A.932.932,0,0,0,976.909,653.1Z" transform="translate(-955.474 -624.969)" fill="#004251" stroke="#004251" stroke-width="0.9"/>
      <path id="Path_176" data-name="Path 176" d="M1072.377,784.926a.932.932,0,0,0,.932-.932v-4.209a.932.932,0,0,0-1.864,0v4.209A.932.932,0,0,0,1072.377,784.926Z" transform="translate(-1045.115 -756.792)" fill="#004251" stroke="#004251" stroke-width="0.9"/>
      <path id="Path_177" data-name="Path 177" d="M1155.208,724.288a.931.931,0,0,0,.931-.932v-8.151a.932.932,0,1,0-1.863,0v8.151A.932.932,0,0,0,1155.208,724.288Z" transform="translate(-1122.891 -696.154)" fill="#004251" stroke="#004251" stroke-width="0.9"/>
      <path id="Path_178" data-name="Path 178" d="M762.737,986.715H780.73a.932.932,0,0,0,0-1.863H762.737a.932.932,0,1,0,0,1.863Z" transform="translate(-754.372 -950.218)" fill="#004251" stroke="#004251" stroke-width="0.9"/>
      <path id="Path_179" data-name="Path 179" d="M762.737,1097.817h24.419a.932.932,0,0,0,0-1.864H762.737a.932.932,0,0,0,0,1.864Z" transform="translate(-754.372 -1054.539)" fill="#004251" stroke="#004251" stroke-width="0.9"/>
      <path id="Path_180" data-name="Path 180" d="M762.737,1201.515h12a.932.932,0,1,0,0-1.863h-12a.932.932,0,1,0,0,1.863Z" transform="translate(-754.372 -1151.91)" fill="#004251" stroke="#004251" stroke-width="0.9"/>
      <path id="Path_181" data-name="Path 181" d="M762.737,1309.616h28.874a.932.932,0,0,0,0-1.864H762.737a.932.932,0,0,0,0,1.864Z" transform="translate(-754.372 -1253.413)" fill="#004251" stroke="#004251" stroke-width="0.9"/>
    </g>
  </g>
</svg>
