<svg id="Group_4488" data-name="Group 4488" xmlns="http://www.w3.org/2000/svg" width="49.72" height="49.72" viewBox="0 0 49.72 49.72">
  <g id="Group_2407" data-name="Group 2407" transform="translate(0 0)">
    <path id="Path_63" data-name="Path 63" d="M24.86,0A24.86,24.86,0,1,1,0,24.86,24.86,24.86,0,0,1,24.86,0Z" fill="#32ae9d"/>
  </g>
  <g id="Group_2406" data-name="Group 2406" transform="translate(12.123 12.487)">
    <g id="Group_2403" data-name="Group 2403" transform="translate(0 0)">
      <g id="Group_2401" data-name="Group 2401" transform="translate(0 4.182)">
        <path id="Path_4703" data-name="Path 4703" d="M1687.847,363.513a10.521,10.521,0,1,1-3.49-2.317A10.478,10.478,0,0,1,1687.847,363.513Zm-12.7,12.7a7.407,7.407,0,1,0,0-10.475A7.415,7.415,0,0,0,1675.15,376.21Z" transform="translate(-1669.838 -360.423)" fill="#fff"/>
      </g>
      <g id="Group_2402" data-name="Group 2402" transform="translate(16.457 0)">
        <path id="Path_4704" data-name="Path 4704" d="M2328.321,195.671h0a1.569,1.569,0,0,1,0,2.22l-5.728,5.728a1.569,1.569,0,0,1-2.219,0h0a1.57,1.57,0,0,1,0-2.22l5.728-5.728A1.569,1.569,0,0,1,2328.321,195.671Z" transform="translate(-2319.914 -195.211)" fill="#fff"/>
      </g>
    </g>
    <g id="Group_2404" data-name="Group 2404" transform="translate(14.084 0)">
      <rect id="Rectangle_2582" data-name="Rectangle 2582" width="11.24" height="3.139" transform="translate(0 0)" fill="#fff"/>
    </g>
    <g id="Group_2405" data-name="Group 2405" transform="translate(22.185 0)">
      <rect id="Rectangle_2583" data-name="Rectangle 2583" width="3.139" height="11.24" transform="translate(0 0)" fill="#fff"/>
    </g>
  </g>
</svg>
