<svg id="Group_4489" data-name="Group 4489" xmlns="http://www.w3.org/2000/svg" width="59.2" height="59.2" viewBox="0 0 59.2 59.2">
  <g id="Group_4525" data-name="Group 4525" transform="translate(0)">
    <g id="Group_1540" data-name="Group 1540">
      <path id="Path_63" data-name="Path 63" d="M29.6,0A29.6,29.6,0,1,1,0,29.6,29.6,29.6,0,0,1,29.6,0Z" fill="#fdce68"/>
    </g>
    <g id="Group_4511" data-name="Group 4511" transform="translate(13.145 6.797)">
      <g id="Group_2408" data-name="Group 2408">
        <path id="Path_4705" data-name="Path 4705" d="M347.085,228.111a16.229,16.229,0,1,1,6.335-1.28A16.174,16.174,0,0,1,347.085,228.111Zm0-27.7a11.426,11.426,0,1,0,11.426,11.426A11.439,11.439,0,0,0,347.085,200.412Z" transform="translate(-330.812 -195.565)" fill="#fff"/>
      </g>
      <g id="Group_4510" data-name="Group 4510" transform="translate(7.622 30.124)">
        <g id="Group_2409" data-name="Group 2409" transform="translate(6.17)">
          <rect id="Rectangle_2584" data-name="Rectangle 2584" width="4.842" height="17.338" transform="translate(0)" fill="#fff"/>
        </g>
        <g id="Group_2410" data-name="Group 2410" transform="translate(0 6.287)">
          <rect id="Rectangle_2585" data-name="Rectangle 2585" width="17.299" height="4.842" fill="#fff"/>
        </g>
      </g>
    </g>
  </g>
</svg>
